  <svg
                width="10"
                height="19"
                viewBox="0 0 10 19"
                fill="none"
                xmlns="http://www.w3.org/2000/svg"
              >
                <path
                  d="M10 5.75V13.25C10 13.6638 9.66379 14 9.25 14C8.83621 14 8.5 13.6638 8.5 13.25V10.819C8.5 10.4052 8.16379 10.069 7.75 10.069H6.25C5.83621 10.069 5.5 10.4052 5.5 10.819V11.1293C5.5 11.5431 5.16379 11.8793 4.75 11.8793C4.33621 11.8793 4 11.5431 4 11.1293V7.57328C4 7.15948 4.33621 6.82328 4.75 6.82328C5.16379 6.82328 5.5 7.15948 5.5 7.57328V7.8319C5.5 8.24569 5.83621 8.5819 6.25 8.5819H7.76293C8.17672 8.5819 8.51293 8.24569 8.51293 7.8319V5.75C8.51293 5.33621 8.84914 5 9.26293 5C9.66379 5.01293 10 5.33621 10 5.75Z"
                  fill="white"
                />
                <path
                  d="M9.14165 15.725C8.92245 15.725 8.70326 15.829 8.57432 16.0109C7.83938 16.9726 6.66605 17.5964 5.36379 17.5964C3.15896 17.5964 1.36673 15.842 1.36673 13.6977V5.41929C1.36673 3.27497 3.17185 1.52052 5.36379 1.52052C6.70473 1.52052 7.89095 2.17031 8.6259 3.158C8.76773 3.33995 8.97403 3.45691 9.20611 3.45691H9.28348C9.8508 3.45691 10.1989 2.80711 9.87659 2.33926C8.92245 0.935705 7.29784 0 5.45404 0H5.29932C2.38534 0 0 2.32626 0 5.15937V13.8406C0 16.6737 2.38534 19 5.29932 19H5.45404C7.20759 19 8.75483 18.1683 9.72186 16.8817C10.0571 16.4138 9.73476 15.725 9.14165 15.725Z"
                  fill="white"
                />
              </svg>